<svg xmlns="http://www.w3.org/2000/svg" width="320" height="256" viewBox="0 0 320 256"><defs><pattern id="tile" width="20" height="12" patternUnits="userSpaceOnUse"><rect width="20" height="12" fill="#586968"/><path d="M0 11H20M10 0V11" stroke="#182b2c" opacity=".38"/><path d="M0 1H20" stroke="#ded1ac" opacity=".18"/></pattern><pattern id="metal" width="16" height="16" patternUnits="userSpaceOnUse"><rect width="16" height="16" fill="#586968"/><path d="M1 0V16M5 0V16" stroke="#b1b5a0" opacity=".26"/></pattern><linearGradient id="shade"><stop stop-color="#e0ce9b" stop-opacity=".18"/><stop offset="1" stop-color="#071d23" stop-opacity=".4"/></linearGradient></defs><path d="M13 14H305L318 35V248H26L13 231Z" fill="#0b191c" opacity=".5"/><rect x="8" y="8" width="304" height="229" rx="2" fill="#958f77" stroke="#172c2b" stroke-width="5"/><rect x="12" y="201" width="296" height="32" fill="#817a61"/><rect x="20" y="20" width="280" height="180" fill="url(#tile)"/><path d="M19 192L160 151L301 192Z" fill="#c8bfa1" stroke="#475951" stroke-width="4"/><ellipse cx="160" cy="100" rx="73" ry="67" fill="#58877e" stroke="#293e3d" stroke-width="5"/><path d="M160 33Q120 100 160 168M160 33Q200 100 160 168M87 100H233" fill="none" stroke="#9ebaa0" stroke-width="3"/><ellipse cx="140" cy="76" rx="26" ry="30" fill="#b7c3a8" opacity=".2"/><rect x="35" y="201" width="12" height="32" fill="#d6c7a3" stroke="#776f5a" stroke-width="2"/><rect x="70" y="201" width="12" height="32" fill="#d6c7a3" stroke="#776f5a" stroke-width="2"/><rect x="105" y="201" width="12" height="32" fill="#d6c7a3" stroke="#776f5a" stroke-width="2"/><rect x="215" y="201" width="12" height="32" fill="#d6c7a3" stroke="#776f5a" stroke-width="2"/><rect x="250" y="201" width="12" height="32" fill="#d6c7a3" stroke="#776f5a" stroke-width="2"/><rect x="285" y="201" width="12" height="32" fill="#d6c7a3" stroke="#776f5a" stroke-width="2"/><path d="M10 201H310M308 27V235" fill="none" stroke="#283f3d" stroke-width="5"/><path d="M13 15H303" stroke="#d8c99e" stroke-width="3" opacity=".5"/><path d="M41 20l7 3m-5 1l9 2" stroke="#152d28" opacity=".17" stroke-width="3"/><path d="M108 61l7 3m-5 1l9 2" stroke="#152d28" opacity=".17" stroke-width="3"/><path d="M175 102l7 3m-5 1l9 2" stroke="#152d28" opacity=".17" stroke-width="3"/><path d="M242 143l7 3m-5 1l9 2" stroke="#152d28" opacity=".17" stroke-width="3"/><path d="M28 184l7 3m-5 1l9 2" stroke="#152d28" opacity=".17" stroke-width="3"/><path d="M95 59l7 3m-5 1l9 2" stroke="#152d28" opacity=".17" stroke-width="3"/><path d="M162 100l7 3m-5 1l9 2" stroke="#152d28" opacity=".17" stroke-width="3"/><path d="M229 141l7 3m-5 1l9 2" stroke="#152d28" opacity=".17" stroke-width="3"/><path d="M296 182l7 3m-5 1l9 2" stroke="#152d28" opacity=".17" stroke-width="3"/><path d="M82 57l7 3m-5 1l9 2" stroke="#152d28" opacity=".17" stroke-width="3"/><path d="M149 98l7 3m-5 1l9 2" stroke="#152d28" opacity=".17" stroke-width="3"/><path d="M216 139l7 3m-5 1l9 2" stroke="#152d28" opacity=".17" stroke-width="3"/><path d="M283 180l7 3m-5 1l9 2" stroke="#152d28" opacity=".17" stroke-width="3"/><path d="M69 55l7 3m-5 1l9 2" stroke="#152d28" opacity=".17" stroke-width="3"/><path d="M136 96l7 3m-5 1l9 2" stroke="#152d28" opacity=".17" stroke-width="3"/><path d="M203 137l7 3m-5 1l9 2" stroke="#152d28" opacity=".17" stroke-width="3"/><path d="M270 178l7 3m-5 1l9 2" stroke="#152d28" opacity=".17" stroke-width="3"/></svg>